<?xml version="1.0" encoding="UTF-8"?>
<svg xmlns="http://www.w3.org/2000/svg" xmlns:xlink="http://www.w3.org/1999/xlink"
     width="1134" height="400" viewBox="0 -400 1134 400">
<defs>
</defs>
<path d="M210,-20 L210,-320" stroke="grey" stroke-width="1" fill="none" />
<text x="160" y="-330" font-size="22" fill="grey" dy="0em">1000</text>
<path d="M410,-20 L410,-320" stroke="grey" stroke-width="1" fill="none" />
<text x="360" y="-330" font-size="22" fill="grey" dy="0em">2000</text>
<path d="M610,-20 L610,-320" stroke="grey" stroke-width="1" fill="none" />
<text x="560" y="-330" font-size="22" fill="grey" dy="0em">3000</text>
<path d="M810,-20 L810,-320" stroke="grey" stroke-width="1" fill="none" />
<text x="760" y="-330" font-size="22" fill="grey" dy="0em">4000</text>
<path d="M1010,-20 L1010,-320" stroke="grey" stroke-width="1" fill="none" />
<text x="960" y="-330" font-size="22" fill="grey" dy="0em">5000</text>
<text x="16.0" y="-260" font-size="38" fill="black" dy="0em">II-C: SAMN36083307.contig00015@1 (37630-42801)</text>
<path d="M221.4,-200 L277.6,-200 L277.6,-150 L221.4,-150 L191.4,-175.0 L221.4,-200 Z" fill="#5b5ea6" fill-opacity="0.8" stroke="#5b5ea6" stroke-width="4" />
<text x="191.4" y="-210" font-size="26" fill="black" dy="0em">Cas2</text>
<path d="M306.2,-200 L454.20000000000005,-200 L454.20000000000005,-150 L306.2,-150 L276.2,-175.0 L306.2,-200 Z" fill="#5b5ea6" fill-opacity="0.8" stroke="#5b5ea6" stroke-width="4" />
<text x="276.2" y="-120" font-size="26" fill="black" dy="0em">Cas1</text>
<path d="M483.6,-200 L1044.4,-200 L1044.4,-150 L483.6,-150 L453.6,-175.0 L483.6,-200 Z" fill="#efc050" fill-opacity="0.8" stroke="#efc050" stroke-width="4" />
<text x="453.6" y="-210" font-size="26" fill="black" dy="0em">Cas9</text>
<path d="M10.2,-200 L162.6,-200 L162.6,-150 L10.2,-150 L10.2,-200 Z" fill="white" stroke="white" stroke-width="4" />
<path d="M10.2,-200 L16.82608695652174,-200 L16.82608695652174,-150 L10.2,-150 L10.2,-200 Z" fill="black" />
<path d="M16.82608695652174,-200 L23.452173913043477,-200 L23.452173913043477,-150 L16.82608695652174,-150 L16.82608695652174,-200 Z" fill="#f0f0f0" />
<path d="M23.452173913043477,-200 L30.078260869565216,-200 L30.078260869565216,-150 L23.452173913043477,-150 L23.452173913043477,-200 Z" fill="black" />
<path d="M30.078260869565216,-200 L36.70434782608696,-200 L36.70434782608696,-150 L30.078260869565216,-150 L30.078260869565216,-200 Z" fill="#f0f0f0" />
<path d="M36.70434782608696,-200 L43.3304347826087,-200 L43.3304347826087,-150 L36.70434782608696,-150 L36.70434782608696,-200 Z" fill="black" />
<path d="M43.3304347826087,-200 L49.95652173913044,-200 L49.95652173913044,-150 L43.3304347826087,-150 L43.3304347826087,-200 Z" fill="#f0f0f0" />
<path d="M49.95652173913044,-200 L56.582608695652176,-200 L56.582608695652176,-150 L49.95652173913044,-150 L49.95652173913044,-200 Z" fill="black" />
<path d="M56.582608695652176,-200 L63.208695652173915,-200 L63.208695652173915,-150 L56.582608695652176,-150 L56.582608695652176,-200 Z" fill="#f0f0f0" />
<path d="M63.208695652173915,-200 L69.83478260869566,-200 L69.83478260869566,-150 L63.208695652173915,-150 L63.208695652173915,-200 Z" fill="black" />
<path d="M69.83478260869566,-200 L76.4608695652174,-200 L76.4608695652174,-150 L69.83478260869566,-150 L69.83478260869566,-200 Z" fill="#f0f0f0" />
<path d="M76.4608695652174,-200 L83.08695652173913,-200 L83.08695652173913,-150 L76.4608695652174,-150 L76.4608695652174,-200 Z" fill="black" />
<path d="M83.08695652173913,-200 L89.71304347826086,-200 L89.71304347826086,-150 L83.08695652173913,-150 L83.08695652173913,-200 Z" fill="#f0f0f0" />
<path d="M89.71304347826086,-200 L96.33913043478259,-200 L96.33913043478259,-150 L89.71304347826086,-150 L89.71304347826086,-200 Z" fill="black" />
<path d="M96.33913043478259,-200 L102.96521739130432,-200 L102.96521739130432,-150 L96.33913043478259,-150 L96.33913043478259,-200 Z" fill="#f0f0f0" />
<path d="M102.96521739130432,-200 L109.59130434782605,-200 L109.59130434782605,-150 L102.96521739130432,-150 L102.96521739130432,-200 Z" fill="black" />
<path d="M109.59130434782605,-200 L116.21739130434779,-200 L116.21739130434779,-150 L109.59130434782605,-150 L109.59130434782605,-200 Z" fill="#f0f0f0" />
<path d="M116.21739130434779,-200 L122.84347826086952,-200 L122.84347826086952,-150 L116.21739130434779,-150 L116.21739130434779,-200 Z" fill="black" />
<path d="M122.84347826086952,-200 L129.46956521739125,-200 L129.46956521739125,-150 L122.84347826086952,-150 L122.84347826086952,-200 Z" fill="#f0f0f0" />
<path d="M129.46956521739125,-200 L136.09565217391298,-200 L136.09565217391298,-150 L129.46956521739125,-150 L129.46956521739125,-200 Z" fill="black" />
<path d="M136.09565217391298,-200 L142.7217391304347,-200 L142.7217391304347,-150 L136.09565217391298,-150 L136.09565217391298,-200 Z" fill="#f0f0f0" />
<path d="M142.7217391304347,-200 L149.34782608695645,-200 L149.34782608695645,-150 L142.7217391304347,-150 L142.7217391304347,-200 Z" fill="black" />
<path d="M149.34782608695645,-200 L155.97391304347818,-200 L155.97391304347818,-150 L149.34782608695645,-150 L149.34782608695645,-200 Z" fill="#f0f0f0" />
<path d="M155.97391304347818,-200 L162.5999999999999,-200 L162.5999999999999,-150 L155.97391304347818,-150 L155.97391304347818,-200 Z" fill="black" />
<text x="10.2" y="-210" font-size="26" fill="black" dy="0em">CRISPR: II-C</text>
</svg>